<?xml version="1.0" encoding="UTF-8"?>
<svg xmlns="http://www.w3.org/2000/svg" xmlns:xlink="http://www.w3.org/1999/xlink" width="200pt" height="200pt" viewBox="0 0 200 200" version="1.1">
<g id="surface195132">
<path style=" stroke:none;fill-rule:nonzero;fill:rgb(9.411765%,56.470588%,100%);fill-opacity:1;" d="M 26 200 C 11.640625 200 0 188.359375 0 174 L 0 26 C 0 11.640625 11.640625 0 26 0 L 174 0 C 188.359375 0 200 11.640625 200 26 L 200 174 C 200 188.359375 188.359375 200 174 200 Z M 170 196 C 184.359375 196 196 184.359375 196 170 L 196 30 C 196 15.640625 184.359375 4 170 4 L 30 4 C 15.640625 4 4 15.640625 4 30 L 4 170 C 4 184.359375 15.640625 196 30 196 Z M 170 196 "/>
<path style=" stroke:none;fill-rule:nonzero;fill:rgb(9.411765%,56.470588%,100%);fill-opacity:1;" d="M 100 17.691406 C 74.449219 17.691406 52.667969 32.125 43.136719 52.800781 C 41.171875 52.421875 39.421875 52.152344 37.96875 52.152344 C 22.730469 52.152344 10.398438 64.484375 10.398438 79.722656 C 10.398438 92.242188 18.773438 102.632812 30.214844 106 C 26.445312 113.242188 24.183594 121.105469 24.183594 129.261719 C 24.183594 163.023438 57.945312 190 100 190 C 142.054688 190 175.816406 162.351562 175.816406 129.261719 C 175.816406 121.105469 173.554688 113.242188 169.785156 106 C 181.226562 102.632812 189.601562 92.242188 189.601562 79.722656 C 189.601562 64.484375 177.269531 52.152344 162.03125 52.152344 C 160.578125 52.152344 158.828125 52.421875 156.863281 52.800781 C 147.332031 32.125 125.550781 17.691406 100 17.691406 Z M 79.324219 39.660156 C 91.035156 39.660156 100 48.625 100 60.339844 C 100 48.625 108.964844 39.660156 120.675781 39.660156 C 130.316406 39.660156 148.246094 52.074219 148.246094 81.015625 C 148.246094 85.835938 147.464844 91.515625 146.09375 95.660156 C 155.730469 103.925781 162.03125 115.558594 162.03125 127.96875 C 162.03125 154.839844 134.460938 176.214844 100 176.214844 C 65.539062 176.214844 37.96875 154.839844 37.96875 127.96875 C 37.96875 115.558594 44.269531 103.925781 53.90625 95.660156 C 52.535156 90.84375 51.753906 85.835938 51.753906 81.015625 C 51.753906 52.074219 70.359375 39.660156 79.324219 39.660156 Z M 37.96875 65.9375 C 38.535156 65.9375 38.722656 65.9375 39.046875 65.9375 C 38.425781 69.304688 37.96875 72.75 37.96875 76.277344 C 37.96875 81.796875 38.75 87.394531 40.125 92.214844 C 39.71875 92.644531 39.421875 93.078125 39.046875 93.507812 C 38.695312 93.480469 38.320312 93.480469 37.96875 93.507812 C 29.757812 93.507812 24.183594 87.933594 24.183594 79.722656 C 24.183594 71.511719 29.757812 65.9375 37.96875 65.9375 Z M 160.953125 65.9375 C 161.277344 65.9375 161.464844 65.9375 162.03125 65.9375 C 170.242188 65.9375 175.816406 71.511719 175.816406 79.722656 C 175.816406 87.933594 170.242188 93.507812 162.03125 93.507812 C 161.734375 93.480469 161.464844 93.480469 161.167969 93.507812 C 160.765625 93.050781 160.308594 92.671875 159.875 92.214844 C 161.25 87.394531 162.03125 81.796875 162.03125 76.277344 C 162.03125 72.75 161.574219 69.304688 160.953125 65.9375 Z M 75.875 79.722656 C 70.167969 79.722656 65.539062 84.355469 65.539062 90.0625 C 65.539062 95.769531 70.167969 100.398438 75.875 100.398438 C 81.585938 100.398438 86.214844 95.769531 86.214844 90.0625 C 86.214844 84.355469 81.585938 79.722656 75.875 79.722656 Z M 124.125 79.722656 C 118.414062 79.722656 113.785156 84.355469 113.785156 90.0625 C 113.785156 95.769531 118.414062 100.398438 124.125 100.398438 C 129.832031 100.398438 134.460938 95.769531 134.460938 90.0625 C 134.460938 84.355469 129.832031 79.722656 124.125 79.722656 Z M 93.109375 107.292969 C 89.3125 107.292969 86.214844 108.828125 86.214844 110.738281 C 86.214844 112.648438 89.3125 114.183594 93.109375 114.183594 C 96.902344 114.183594 100 112.648438 100 110.738281 C 100 108.828125 96.902344 107.292969 93.109375 107.292969 Z M 100 110.738281 C 100 112.648438 103.097656 114.183594 106.890625 114.183594 C 110.6875 114.183594 113.785156 112.648438 113.785156 110.738281 C 113.785156 108.828125 110.6875 107.292969 106.890625 107.292969 C 103.097656 107.292969 100 108.828125 100 110.738281 Z M 148.03125 127.539062 C 146.386719 127.726562 144.855469 128.480469 143.722656 129.691406 C 143.722656 129.691406 140.84375 132.382812 133.601562 135.507812 C 126.359375 138.628906 115.210938 141.753906 100 141.753906 C 84.789062 141.753906 73.640625 138.628906 66.398438 135.507812 C 59.15625 132.382812 56.277344 129.691406 56.277344 129.691406 C 54.714844 128.238281 52.5625 127.621094 50.460938 127.96875 C 47.824219 128.425781 45.695312 130.390625 45.023438 132.976562 C 44.324219 135.5625 45.183594 138.308594 47.230469 140.03125 C 47.230469 140.03125 52.238281 144.230469 61.015625 148 C 69.792969 151.769531 82.824219 155.539062 100 155.539062 C 117.175781 155.539062 130.207031 151.769531 138.984375 148 C 147.761719 144.230469 152.769531 140.03125 152.769531 140.03125 C 155.355469 138.226562 156.375 134.886719 155.246094 131.953125 C 154.140625 128.992188 151.152344 127.1875 148.03125 127.539062 Z M 148.03125 127.539062 "/>
</g>
</svg>
