<?xml version="1.0" encoding="UTF-8"?>
<svg xmlns="http://www.w3.org/2000/svg" xmlns:xlink="http://www.w3.org/1999/xlink" width="200pt" height="200pt" viewBox="0 0 200 200" version="1.1">
<g id="surface194815">
<path style=" stroke:none;fill-rule:nonzero;fill:rgb(9.411765%,56.470588%,100%);fill-opacity:1;" d="M 100 7.691406 C 71.484375 7.691406 47.175781 23.796875 36.539062 46.875 C 34.34375 46.453125 32.390625 46.152344 30.769531 46.152344 C 13.761719 46.152344 0 59.914062 0 76.921875 C 0 90.894531 9.34375 102.492188 22.117188 106.25 C 17.910156 114.332031 15.382812 123.105469 15.382812 132.210938 C 15.382812 169.890625 53.066406 200 100 200 C 146.933594 200 184.617188 169.140625 184.617188 132.210938 C 184.617188 123.105469 182.089844 114.332031 177.882812 106.25 C 190.65625 102.492188 200 90.894531 200 76.921875 C 200 59.914062 186.238281 46.152344 169.230469 46.152344 C 167.609375 46.152344 165.65625 46.453125 163.460938 46.875 C 152.824219 23.796875 128.515625 7.691406 100 7.691406 Z M 76.921875 32.210938 C 89.992188 32.210938 100 42.21875 100 55.289062 C 100 42.21875 110.007812 32.210938 123.078125 32.210938 C 133.835938 32.210938 153.847656 46.0625 153.847656 78.367188 C 153.847656 83.742188 152.976562 90.085938 151.441406 94.710938 C 162.199219 103.9375 169.230469 116.917969 169.230469 130.769531 C 169.230469 160.757812 138.460938 184.617188 100 184.617188 C 61.539062 184.617188 30.769531 160.757812 30.769531 130.769531 C 30.769531 116.917969 37.800781 103.9375 48.558594 94.710938 C 47.023438 89.332031 46.152344 83.742188 46.152344 78.367188 C 46.152344 46.0625 66.917969 32.210938 76.921875 32.210938 Z M 30.769531 61.539062 C 31.398438 61.539062 31.609375 61.539062 31.972656 61.539062 C 31.28125 65.292969 30.769531 69.140625 30.769531 73.078125 C 30.769531 79.238281 31.640625 85.488281 33.171875 90.867188 C 32.722656 91.347656 32.390625 91.828125 31.972656 92.308594 C 31.582031 92.277344 31.160156 92.277344 30.769531 92.308594 C 21.605469 92.308594 15.382812 86.085938 15.382812 76.921875 C 15.382812 67.757812 21.605469 61.539062 30.769531 61.539062 Z M 168.027344 61.539062 C 168.390625 61.539062 168.601562 61.539062 169.230469 61.539062 C 178.394531 61.539062 184.617188 67.757812 184.617188 76.921875 C 184.617188 86.085938 178.394531 92.308594 169.230469 92.308594 C 168.898438 92.277344 168.601562 92.277344 168.269531 92.308594 C 167.820312 91.796875 167.308594 91.375 166.828125 90.867188 C 168.359375 85.488281 169.230469 79.238281 169.230469 73.078125 C 169.230469 69.140625 168.71875 65.292969 168.027344 61.539062 Z M 73.078125 76.921875 C 66.707031 76.921875 61.539062 82.089844 61.539062 88.460938 C 61.539062 94.832031 66.707031 100 73.078125 100 C 79.445312 100 84.617188 94.832031 84.617188 88.460938 C 84.617188 82.089844 79.445312 76.921875 73.078125 76.921875 Z M 126.921875 76.921875 C 120.554688 76.921875 115.382812 82.089844 115.382812 88.460938 C 115.382812 94.832031 120.554688 100 126.921875 100 C 133.292969 100 138.460938 94.832031 138.460938 88.460938 C 138.460938 82.089844 133.292969 76.921875 126.921875 76.921875 Z M 92.308594 107.691406 C 88.070312 107.691406 84.617188 109.40625 84.617188 111.539062 C 84.617188 113.671875 88.070312 115.382812 92.308594 115.382812 C 96.542969 115.382812 100 113.671875 100 111.539062 C 100 109.40625 96.542969 107.691406 92.308594 107.691406 Z M 100 111.539062 C 100 113.671875 103.457031 115.382812 107.691406 115.382812 C 111.929688 115.382812 115.382812 113.671875 115.382812 111.539062 C 115.382812 109.40625 111.929688 107.691406 107.691406 107.691406 C 103.457031 107.691406 100 109.40625 100 111.539062 Z M 153.605469 130.289062 C 151.773438 130.5 150.058594 131.339844 148.796875 132.691406 C 148.796875 132.691406 145.582031 135.695312 137.5 139.183594 C 129.417969 142.667969 116.976562 146.152344 100 146.152344 C 83.023438 146.152344 70.582031 142.667969 62.5 139.183594 C 54.417969 135.695312 51.203125 132.691406 51.203125 132.691406 C 49.460938 131.070312 47.054688 130.378906 44.710938 130.769531 C 41.765625 131.28125 39.394531 133.472656 38.640625 136.359375 C 37.859375 139.242188 38.820312 142.308594 41.105469 144.230469 C 41.105469 144.230469 46.695312 148.917969 56.492188 153.125 C 66.285156 157.332031 80.828125 161.539062 100 161.539062 C 119.171875 161.539062 133.714844 157.332031 143.507812 153.125 C 153.304688 148.917969 158.894531 144.230469 158.894531 144.230469 C 161.777344 142.21875 162.921875 138.492188 161.660156 135.214844 C 160.425781 131.910156 157.089844 129.898438 153.605469 130.289062 Z M 153.605469 130.289062 "/>
</g>
</svg>
