<?xml version="1.0" encoding="UTF-8" standalone="yes"?>
<svg xmlns="http://www.w3.org/2000/svg" xmlns:xlink="http://www.w3.org/1999/xlink" viewBox="0 0 24 24" version="1.1" width="200" height="200" fill="#000000">
  <g id="surface1">
    <path style=" " d="M 12 1 C 8.90625 1 6.175781 2.664063 4.78125 5.09375 C 4.5 5.003906 4.289063 5 4 5 C 2.300781 5 1 6.300781 1 8 C 1 9.699219 2.300781 11 4 11 C 2.753906 12.382813 2 14.050781 2 15.90625 C 2 20.40625 6.5 24 12 24 C 17.5 24 22 20.40625 22 15.90625 C 22 14.050781 21.246094 12.382813 20 11 C 21.699219 11 23 9.699219 23 8 C 23 6.300781 21.699219 5 20 5 C 19.710938 5 19.5 5.003906 19.21875 5.09375 C 17.824219 2.664063 15.09375 1 12 1 Z M 9.1875 4 C 10.6875 4 11.90625 5.210938 11.90625 6.8125 C 11.90625 5.3125 13.09375 4 14.59375 4 C 15.894531 4 18.1875 5.601563 18.1875 9.5 C 18.1875 10.199219 18.105469 10.898438 17.90625 11.5 C 19.207031 12.601563 20 14.210938 20 15.8125 C 20.199219 19.3125 16.5 22.1875 12 22.1875 C 7.5 22.1875 3.8125 19.3125 3.8125 15.8125 C 3.8125 14.113281 4.605469 12.601563 5.90625 11.5 C 5.707031 10.898438 5.59375 10.199219 5.59375 9.5 C 5.59375 5.601563 7.988281 4 9.1875 4 Z M 9.5 9 C 8.671875 9 8 9.671875 8 10.5 C 8 11.328125 8.671875 12 9.5 12 C 10.328125 12 11 11.328125 11 10.5 C 11 9.671875 10.328125 9 9.5 9 Z M 14.5 9 C 13.671875 9 13 9.671875 13 10.5 C 13 11.328125 13.671875 12 14.5 12 C 15.328125 12 16 11.328125 16 10.5 C 16 9.671875 15.328125 9 14.5 9 Z M 11.09375 13 C 10.492188 13 10 13.113281 10 13.3125 C 10 13.613281 10.492188 14 11.09375 14 C 11.472656 14 11.800781 13.820313 12 13.625 C 12.199219 13.820313 12.527344 14 12.90625 14 C 13.507813 14 14 13.613281 14 13.3125 C 14 13.113281 13.507813 13 12.90625 13 C 12.535156 13 12.199219 12.992188 12 13.0625 C 11.816406 12.996094 11.515625 13 11.09375 13 Z M 6.71875 16.28125 L 5.28125 17.71875 C 5.28125 17.71875 5.941406 18.347656 7.0625 18.90625 C 8.183594 19.464844 9.832031 20 12 20 C 14.167969 20 15.816406 19.464844 16.9375 18.90625 C 18.058594 18.347656 18.71875 17.71875 18.71875 17.71875 L 17.28125 16.28125 C 17.28125 16.28125 16.941406 16.652344 16.0625 17.09375 C 15.183594 17.535156 13.832031 18 12 18 C 10.167969 18 8.816406 17.535156 7.9375 17.09375 C 7.058594 16.652344 6.71875 16.28125 6.71875 16.28125 Z "/>
  </g>
</svg>
